<?xml version="1.0" encoding="utf-8"?>
<!-- Generator: Adobe Illustrator 17.1.0, SVG Export Plug-In . SVG Version: 6.00 Build 0)  -->
<!DOCTYPE svg PUBLIC "-//W3C//DTD SVG 1.1//EN" "http://www.w3.org/Graphics/SVG/1.1/DTD/svg11.dtd">
<svg version="1.1" xmlns="http://www.w3.org/2000/svg" xmlns:xlink="http://www.w3.org/1999/xlink" x="0px" y="0px"
	 viewBox="0 0 24 24" enable-background="new 0 0 24 24" xml:space="preserve">
<g id="Layer_1">
	<g>
		<path d="M21,1c1.1,0,2,0.9,2,2v18c0,1.1-0.9,2-2,2H3c-1.1,0-2-0.9-2-2V3c0-1.1,0.9-2,2-2H21 M21,0H3C1.3,0,0,1.3,0,3v18
			c0,1.7,1.3,3,3,3h18c1.7,0,3-1.3,3-3V3C24,1.3,22.7,0,21,0L21,0z"/>
	</g>
</g>
<g id="Layer_3" display="none">
	<g display="inline">
		<path fill="#010101" d="M22.3,18.4c-0.2-1.2-1.7-4.6-3.4-7.1c-3.5,2-5.1,7.6-5.4,8.7c3.9,0.5,8.6-1,8.6-1"/>
		<path fill="#010101" d="M5.9,11.9c0.5,2.3,1.7,5.2,4.8,7c0.9,0.5,1.4,0.9,2.4,1c0.3-1.1,1.9-6.9,5.6-9c-0.6-0.9-1.4-1.3-2.4-1.9
			c-1.9-1.1-6.4-1.7-8.6-1l-1-4.2l-5.1,8.7L5.9,11.9z"/>
		<path fill="none" stroke="#FFFFFF" stroke-width="0.75" stroke-linecap="round" stroke-miterlimit="10" d="M18.5,19
			c0-0.2,0-0.4,0-0.6c0-0.6-0.3-1.2-0.8-1.6"/>
		<path fill="none" stroke="#FFFFFF" stroke-width="0.75" stroke-linecap="round" stroke-miterlimit="10" d="M19.6,17.7
			c-1.1-0.1-1.9,0.1-2.6,0.6"/>
	</g>
	<path display="inline" fill="none" stroke="#000000" stroke-width="0.75" stroke-linecap="round" stroke-miterlimit="10" d="
		M11.6,2.4C12.4,2.9,13,3.3,13,3.7c0,1-1.7,0.6-1.6,1.6s1.7,0.5,1.7,2"/>
	<path display="inline" fill="none" stroke="#000000" stroke-width="0.75" stroke-linecap="round" stroke-miterlimit="10" d="
		M14.2,2.9c0.9,0.4,1.5,0.8,1.5,1.3c0,1-1.7,0.6-1.6,1.6s1.7,0.5,1.7,2"/>
	<path display="inline" fill="none" stroke="#000000" stroke-width="0.75" stroke-linecap="round" stroke-miterlimit="10" d="
		M17.2,3.6c0.9,0.4,1.5,0.8,1.5,1.3c0,1-1.7,0.6-1.6,1.6s1.7,0.5,1.7,2"/>
</g>
<g id="Layer_4" display="none">
	<g display="inline">
		<defs>
			<rect id="SVGID_1_" x="7.4" y="2" width="9.3" height="20"/>
		</defs>
		<clipPath id="SVGID_2_">
			<use xlink:href="#SVGID_1_"  overflow="visible"/>
		</clipPath>
		<path clip-path="url(#SVGID_2_)" fill="#010101" d="M14.8,15.3v-11C14.8,3,13.6,2,12,2H12c-1.6,0-2.8,1-2.8,2.3v10.9
			c-1.1,0.7-1.8,1.8-1.8,3c0,2.1,2.1,3.8,4.6,3.8s4.6-1.7,4.6-3.8C16.6,17.1,16,16,14.8,15.3 M12,21.3c-2.1,0-3.8-1.4-3.8-3.1
			c0-1,0.6-2,1.6-2.5l0.2-0.1V9.9h1.1V9.2H10V7.4h1.1V6.7H10V4.3c0-0.9,0.9-1.6,1.9-1.6H12c1.1,0,1.9,0.7,1.9,1.6v11.3l0.2,0.1
			c1,0.6,1.6,1.5,1.6,2.5C15.8,19.9,14.1,21.3,12,21.3"/>
		<path clip-path="url(#SVGID_2_)" fill="#010101" d="M13.7,16.3L13.1,16v-0.6v-3.9h-2.2v3.9V16l-0.5,0.3c-0.8,0.4-1.3,1.2-1.3,1.9
			c0,1.3,1.3,2.4,2.9,2.4s2.9-1.1,2.9-2.4C14.9,17.5,14.5,16.7,13.7,16.3"/>
	</g>
</g>
<g id="Layer_2">
	<path fill="#010101" d="M19.5,6.7c-3.4-2.3-5.7-1.5-8-0.3c-2.1,1-2.9,1-2.9,1c0-1.1-1.2-0.6-1.2-0.6S7.2,6.4,6.7,6.4
		c-1.1,0-1.6,2.3-1.6,2.3c-2.4,0.7-3.6,3.5-3.6,3.5s-0.1,0.1,0,0.4c0.1,0.2,0.2,0.2,0.2,0.2c2.8,1.2,4.9,0,4.9,0
		c0.4,0.1,0.8-0.1,0.8-0.1c0.6,0.8,1.3,1.1,2.1,1.1c0.1,0.4,0.1,1.5-0.7,1.3c-1.1-0.4-1.6,0.3-1.9,0.7c-0.2,0.2-0.1,0.5,0.7,0.4h2.1
		c0,0,0.9,0.1,1-0.6c0-0.6,0.5-2,1.2-2.1c1.1-0.2,2.3-0.2,3.4,0.9c0,0,0,0,0,0c0.3,0.2,0,0.8-0.2,0.8c-0.1,0-0.2,0-0.4,0
		c-1.1-0.4-1.5,0.2-1.8,0.6c-0.2,0.2-0.1,0.4,0.7,0.4h3c2,1,4.2-0.5,4.9-1.5c0,0.1,0,0.2,0,0.2c0.1,0.8-0.6,2.6-1.3,3.1
		c-1.3,1-2.9,0.5-4.6,0c-0.2-0.1-0.5-0.1-0.7-0.2c-1.9-0.5-4.2-0.9-7.3,1.5c-0.1,0.1-0.1,0.3-0.1,0.4c0.1,0.1,0.3,0.1,0.4,0.1
		c2.9-2.2,5.1-1.9,6.9-1.4c0.2,0.1,0.5,0.1,0.7,0.2c1.2,0.4,2.5,0.7,3.7,0.5c0.5-0.1,0.9-0.3,1.4-0.6c1.2-0.9,1.7-3.4,1.4-4.3
		C23,12.8,22.6,8.9,19.5,6.7"/>
</g>
</svg>
